# xmcd
#
# Track frame offsets:
#	150
#	22015
#	42365
#	55691
#	69759
#	84905
#	100687
#	117460
#	135744
#	152359
#	169321
#	182652
#	197911
#
# Disc length: 2952 seconds
#
# Revision: 3
# Processed by: cddbd v1.5.2PL0 Copyright (c) Steve Scherf et al.
# Submitted via: EZCDAudioConverter 3.1.7.1
#
DISCID=a40b860d
DTITLE=Colt Ford - Mud Digger Volume 6
DYEAR=2015
DGENRE=Country
TTITLE0=Lenny Cooper , Demun Jones - Mud Digger Mega Remix
TTITLE1=The Lacs and Hard Target - Free Birds
TTITLE2=J Rosevelt - Swampy
TTITLE3=Colt Ford - In Our Neck of the Woods
TTITLE4=Bubba Sparxxx - Mardi Gras
TTITLE5=Cypress Spring - Way of Life
TTITLE6=Moccasin Creek - Redneckonize
TTITLE7=Moonshine Bandits - Throwdown
TTITLE8=Exit 24 - Barn Song
TTITLE9=14NI - Saturday Afternoon
TTITLE10=Trailer Choir - Better With a Bee
TTITLE11=Amber Delacruz - Take It on Home
TTITLE12=Charlie Farlie - Backroads Life
EXTD=
EXTT0=
EXTT1=
EXTT2=
EXTT3=
EXTT4=
EXTT5=
EXTT6=
EXTT7=
EXTT8=
EXTT9=
EXTT10=
EXTT11=
EXTT12=
PLAYORDER=
